<?xml version="1.0" encoding="UTF-8"?>
<svg xmlns="http://www.w3.org/2000/svg" xmlns:xlink="http://www.w3.org/1999/xlink" width="500px" height="500px" viewBox="0 0 500 500" version="1.1">
<g id="surface1">
<path style=" stroke:none;fill-rule:nonzero;fill:rgb(82.352941%,63.137255%,30.196078%);fill-opacity:1;" d="M 205.960938 249.410156 L 184.617188 249.410156 L 184.617188 211.960938 L 205.960938 211.960938 L 205.960938 219.191406 L 192.144531 219.191406 L 192.144531 225.660156 L 204.960938 225.660156 L 204.960938 232.890625 L 192.144531 232.890625 L 192.144531 242.121094 L 205.960938 242.121094 Z M 205.960938 249.410156 "/>
<path style=" stroke:none;fill-rule:nonzero;fill:rgb(82.352941%,63.137255%,30.196078%);fill-opacity:1;" d="M 236.417969 221.191406 L 227.832031 249.410156 L 219.71875 249.410156 L 211.195312 221.191406 L 218.78125 221.191406 L 223.953125 240.59375 L 229.070312 221.191406 Z M 236.417969 221.191406 "/>
<path style=" stroke:none;fill-rule:nonzero;fill:rgb(82.352941%,63.137255%,30.196078%);fill-opacity:1;" d="M 265.226562 235.300781 C 265.226562 239.945312 264.167969 243.589844 261.996094 246.296875 C 259.878906 248.941406 256.878906 250.292969 253 250.292969 C 249.117188 250.292969 246.121094 248.941406 244.003906 246.296875 C 241.886719 243.648438 240.769531 239.945312 240.769531 235.300781 C 240.769531 230.597656 241.828125 226.953125 244.003906 224.304688 C 246.179688 221.660156 249.175781 220.308594 253 220.308594 C 256.878906 220.308594 259.878906 221.660156 261.996094 224.304688 C 264.167969 227.011719 265.226562 230.65625 265.226562 235.300781 Z M 256.410156 242.179688 C 256.878906 241.472656 257.230469 240.59375 257.46875 239.59375 C 257.703125 238.59375 257.820312 237.183594 257.820312 235.359375 C 257.820312 233.714844 257.703125 232.300781 257.46875 231.183594 C 257.230469 230.066406 256.878906 229.1875 256.46875 228.480469 C 256.054688 227.773438 255.527344 227.304688 254.9375 227.011719 C 254.351562 226.71875 253.703125 226.597656 253 226.597656 C 252.292969 226.597656 251.707031 226.71875 251.175781 226.953125 C 250.648438 227.1875 250.117188 227.65625 249.648438 228.363281 C 249.234375 229.011719 248.882812 229.890625 248.589844 231.066406 C 248.355469 232.183594 248.175781 233.65625 248.175781 235.359375 C 248.175781 236.886719 248.292969 238.242188 248.53125 239.359375 C 248.765625 240.476562 249.058594 241.414062 249.53125 242.0625 C 249.941406 242.710938 250.46875 243.179688 251.058594 243.472656 C 251.644531 243.769531 252.292969 243.945312 253.058594 243.945312 C 253.703125 243.945312 254.292969 243.828125 254.9375 243.53125 C 255.527344 243.296875 255.996094 242.828125 256.410156 242.179688 Z M 256.410156 242.179688 "/>
<path style=" stroke:none;fill-rule:nonzero;fill:rgb(82.352941%,63.137255%,30.196078%);fill-opacity:1;" d="M 279.515625 249.410156 L 272.402344 249.410156 L 272.402344 210.3125 L 279.515625 210.3125 Z M 279.515625 249.410156 "/>
<path style=" stroke:none;fill-rule:nonzero;fill:rgb(82.352941%,63.137255%,30.196078%);fill-opacity:1;" d="M 310.734375 221.191406 L 302.152344 249.410156 L 294.039062 249.410156 L 285.511719 221.191406 L 293.097656 221.191406 L 298.269531 240.59375 L 303.386719 221.191406 Z M 310.734375 221.191406 "/>
<path style=" stroke:none;fill-rule:nonzero;fill:rgb(82.352941%,63.137255%,30.196078%);fill-opacity:1;" d="M 338.664062 237.007812 L 322.320312 237.007812 C 322.4375 239.242188 323.082031 240.886719 324.316406 242.0625 C 325.550781 243.238281 327.375 243.828125 329.726562 243.828125 C 331.257812 243.828125 332.667969 243.472656 334.136719 242.769531 C 335.546875 242.0625 336.664062 241.355469 337.488281 240.535156 L 338.253906 240.535156 L 338.253906 247.824219 C 336.605469 248.648438 335.136719 249.234375 333.667969 249.589844 C 332.195312 249.941406 330.667969 250.117188 328.902344 250.117188 C 324.4375 250.117188 321.027344 248.824219 318.613281 246.296875 C 316.203125 243.769531 315.027344 240.121094 315.027344 235.417969 C 315.027344 230.773438 316.144531 227.070312 318.4375 224.363281 C 320.671875 221.660156 323.789062 220.25 327.726562 220.25 C 331.375 220.25 334.078125 221.425781 335.902344 223.71875 C 337.722656 226.070312 338.664062 229.363281 338.664062 233.714844 Z M 331.550781 231.65625 C 331.492188 229.773438 331.136719 228.363281 330.433594 227.363281 C 329.726562 226.363281 328.667969 225.953125 327.140625 225.953125 C 325.789062 225.953125 324.613281 226.421875 323.730469 227.304688 C 322.847656 228.1875 322.378906 229.65625 322.261719 231.65625 Z M 331.550781 231.65625 "/>
<path style=" stroke:none;fill-rule:nonzero;fill:rgb(82.352941%,63.137255%,30.196078%);fill-opacity:1;" d="M 369.238281 219.25 L 360.007812 219.25 L 360.007812 249.472656 L 352.363281 249.472656 L 352.363281 219.25 L 343.132812 219.25 L 343.132812 212.019531 L 369.238281 212.019531 Z M 369.238281 219.25 "/>
<path style=" stroke:none;fill-rule:nonzero;fill:rgb(82.352941%,63.137255%,30.196078%);fill-opacity:1;" d="M 397.402344 237.007812 L 381.054688 237.007812 C 381.171875 239.242188 381.820312 240.886719 383.054688 242.0625 C 384.289062 243.238281 386.113281 243.828125 388.464844 243.828125 C 389.992188 243.828125 391.402344 243.472656 392.875 242.769531 C 394.285156 242.0625 395.402344 241.355469 396.226562 240.535156 L 396.988281 240.535156 L 396.988281 247.824219 C 395.34375 248.648438 393.875 249.234375 392.402344 249.589844 C 390.933594 249.941406 389.40625 250.117188 387.640625 250.117188 C 383.171875 250.117188 379.761719 248.824219 377.351562 246.296875 C 374.941406 243.769531 373.765625 240.121094 373.765625 235.417969 C 373.765625 230.773438 374.882812 227.070312 377.175781 224.363281 C 379.410156 221.660156 382.527344 220.25 386.464844 220.25 C 390.109375 220.25 392.816406 221.425781 394.636719 223.71875 C 396.460938 226.070312 397.402344 229.363281 397.402344 233.714844 Z M 390.285156 231.65625 C 390.226562 229.773438 389.875 228.363281 389.167969 227.363281 C 388.464844 226.363281 387.40625 225.953125 385.878906 225.953125 C 384.523438 225.953125 383.347656 226.421875 382.46875 227.304688 C 381.585938 228.1875 381.113281 229.65625 380.996094 231.65625 Z M 390.285156 231.65625 "/>
<path style=" stroke:none;fill-rule:nonzero;fill:rgb(82.352941%,63.137255%,30.196078%);fill-opacity:1;" d="M 416.097656 250.175781 C 414.15625 250.175781 412.394531 249.882812 410.746094 249.292969 C 409.101562 248.707031 407.75 247.824219 406.574219 246.589844 C 405.398438 245.355469 404.457031 243.828125 403.808594 241.945312 C 403.164062 240.0625 402.808594 237.886719 402.808594 235.417969 C 402.808594 232.773438 403.164062 230.539062 403.867188 228.597656 C 404.574219 226.65625 405.515625 225.128906 406.75 223.835938 C 407.925781 222.660156 409.335938 221.777344 410.925781 221.191406 C 412.511719 220.660156 414.15625 220.367188 415.804688 220.367188 C 417.332031 220.367188 418.742188 220.601562 420.039062 221.011719 C 421.332031 221.425781 422.507812 221.953125 423.625 222.660156 L 423.625 230.363281 L 422.625 230.363281 C 422.332031 230.066406 422.035156 229.714844 421.625 229.304688 C 421.214844 228.890625 420.742188 228.480469 420.15625 228.128906 C 419.625 227.773438 419.039062 227.480469 418.390625 227.1875 C 417.746094 226.953125 416.980469 226.835938 416.15625 226.835938 C 414.277344 226.835938 412.804688 227.597656 411.746094 229.128906 C 410.746094 230.65625 410.21875 232.714844 410.21875 235.359375 C 410.21875 238.0625 410.746094 240.121094 411.804688 241.535156 C 412.863281 242.945312 414.335938 243.648438 416.273438 243.648438 C 417.15625 243.648438 417.980469 243.53125 418.683594 243.238281 C 419.390625 243.003906 419.980469 242.652344 420.449219 242.296875 C 420.917969 241.945312 421.273438 241.59375 421.625 241.238281 C 421.976562 240.886719 422.273438 240.535156 422.566406 240.179688 L 423.566406 240.179688 L 423.566406 247.882812 C 422.449219 248.53125 421.273438 249.058594 420.039062 249.472656 C 418.921875 250 417.566406 250.175781 416.097656 250.175781 Z M 416.097656 250.175781 "/>
<path style=" stroke:none;fill-rule:nonzero;fill:rgb(82.352941%,63.137255%,30.196078%);fill-opacity:1;" d="M 452.785156 249.410156 L 445.613281 249.410156 L 445.613281 235.417969 C 445.613281 234.300781 445.554688 233.125 445.496094 232.007812 C 445.4375 230.890625 445.261719 230.066406 445.027344 229.539062 C 444.730469 228.949219 444.378906 228.480469 443.851562 228.1875 C 443.320312 227.894531 442.617188 227.773438 441.734375 227.773438 C 441.085938 227.773438 440.441406 227.894531 439.734375 228.1875 C 439.085938 228.480469 438.324219 228.890625 437.558594 229.480469 L 437.558594 249.472656 L 430.386719 249.472656 L 430.386719 210.371094 L 437.558594 210.371094 L 437.558594 224.363281 C 438.851562 223.128906 440.027344 222.128906 441.203125 221.484375 C 442.378906 220.835938 443.671875 220.484375 445.085938 220.484375 C 447.496094 220.484375 449.375 221.367188 450.730469 223.128906 C 452.082031 224.894531 452.785156 227.539062 452.785156 231.066406 Z M 452.785156 249.410156 "/>
<path style=" stroke:none;fill-rule:nonzero;fill:rgb(100%,100%,100%);fill-opacity:1;" d="M 227.539062 261.347656 L 216.367188 288.570312 L 207.492188 288.570312 L 196.320312 261.347656 L 204.609375 261.347656 L 212.019531 280.457031 L 219.425781 261.347656 Z M 227.539062 261.347656 "/>
<path style=" stroke:none;fill-rule:nonzero;fill:rgb(100%,100%,100%);fill-opacity:1;" d="M 258.527344 279.515625 L 241.535156 279.515625 C 241.652344 281.101562 242.355469 282.335938 243.589844 283.21875 C 244.824219 284.101562 246.707031 284.511719 249.175781 284.511719 C 250.765625 284.511719 252.234375 284.277344 253.703125 283.75 C 255.175781 283.21875 256.351562 282.691406 257.171875 282.160156 L 257.996094 282.160156 L 257.996094 287.453125 C 256.292969 288.039062 254.761719 288.511719 253.292969 288.746094 C 251.824219 288.980469 250.175781 289.15625 248.355469 289.15625 C 243.707031 289.15625 240.179688 288.21875 237.710938 286.394531 C 235.242188 284.570312 234.007812 281.925781 234.007812 278.457031 C 234.007812 275.046875 235.183594 272.402344 237.535156 270.402344 C 239.886719 268.402344 243.0625 267.460938 247.179688 267.460938 C 250.941406 267.460938 253.761719 268.285156 255.644531 269.992188 C 257.527344 271.695312 258.464844 274.105469 258.464844 277.28125 Z M 251.117188 275.636719 C 251.058594 274.28125 250.707031 273.222656 249.941406 272.519531 C 249.175781 271.8125 248.058594 271.460938 246.53125 271.460938 C 245.121094 271.460938 243.945312 271.8125 243.003906 272.460938 C 242.0625 273.105469 241.59375 274.164062 241.472656 275.636719 Z M 251.117188 275.636719 "/>
<path style=" stroke:none;fill-rule:nonzero;fill:rgb(100%,100%,100%);fill-opacity:1;" d="M 291.15625 288.570312 L 283.691406 288.570312 L 283.691406 278.398438 C 283.691406 277.574219 283.632812 276.753906 283.574219 275.929688 C 283.453125 275.105469 283.335938 274.519531 283.101562 274.105469 C 282.808594 273.636719 282.457031 273.34375 281.925781 273.105469 C 281.398438 272.871094 280.691406 272.8125 279.691406 272.8125 C 279.046875 272.8125 278.339844 272.929688 277.632812 273.105469 C 276.929688 273.28125 276.164062 273.636719 275.398438 274.046875 L 275.398438 288.570312 L 267.992188 288.570312 L 267.992188 268.050781 L 275.398438 268.050781 L 275.398438 270.34375 C 276.691406 269.460938 277.988281 268.695312 279.222656 268.226562 C 280.457031 267.757812 281.808594 267.519531 283.277344 267.519531 C 285.746094 267.519531 287.746094 268.167969 289.15625 269.460938 C 290.570312 270.753906 291.273438 272.695312 291.273438 275.28125 L 291.273438 288.570312 Z M 291.15625 288.570312 "/>
<path style=" stroke:none;fill-rule:nonzero;fill:rgb(100%,100%,100%);fill-opacity:1;" d="M 317.027344 288.394531 C 316.261719 288.570312 315.382812 288.6875 314.5 288.804688 C 313.617188 288.921875 312.5 288.980469 311.207031 288.980469 C 308.324219 288.980469 306.207031 288.453125 304.796875 287.453125 C 303.386719 286.453125 302.679688 284.628906 302.679688 282.160156 L 302.679688 272.578125 L 299.625 272.578125 L 299.625 268.109375 L 302.679688 268.109375 L 302.679688 262.230469 L 310.089844 262.230469 L 310.089844 268.109375 L 317.027344 268.109375 L 317.027344 272.578125 L 310.089844 272.578125 L 310.089844 279.867188 C 310.089844 280.574219 310.089844 281.21875 310.089844 281.75 C 310.089844 282.277344 310.207031 282.75 310.441406 283.21875 C 310.617188 283.632812 310.972656 283.984375 311.441406 284.21875 C 311.910156 284.453125 312.617188 284.570312 313.558594 284.570312 C 313.96875 284.570312 314.441406 284.511719 315.085938 284.335938 C 315.734375 284.160156 316.144531 284.042969 316.378906 283.925781 L 316.96875 283.925781 Z M 317.027344 288.394531 "/>
<path style=" stroke:none;fill-rule:nonzero;fill:rgb(100%,100%,100%);fill-opacity:1;" d="M 348.660156 288.570312 L 341.25 288.570312 L 341.25 286.277344 C 339.898438 287.21875 338.605469 287.921875 337.488281 288.394531 C 336.371094 288.863281 335.019531 289.097656 333.429688 289.097656 C 330.902344 289.097656 328.902344 288.453125 327.550781 287.160156 C 326.199219 285.867188 325.492188 283.925781 325.492188 281.398438 L 325.492188 268.050781 L 332.960938 268.050781 L 332.960938 278.222656 C 332.960938 279.28125 333.019531 280.101562 333.078125 280.808594 C 333.136719 281.515625 333.3125 282.042969 333.609375 282.515625 C 333.84375 282.984375 334.253906 283.277344 334.785156 283.511719 C 335.3125 283.75 336.078125 283.808594 337.019531 283.808594 C 337.664062 283.808594 338.371094 283.691406 339.132812 283.511719 C 339.898438 283.335938 340.664062 282.984375 341.367188 282.632812 L 341.367188 268.109375 L 348.660156 268.109375 Z M 348.660156 288.570312 "/>
<path style=" stroke:none;fill-rule:nonzero;fill:rgb(100%,100%,100%);fill-opacity:1;" d="M 376.644531 274.28125 L 376 274.28125 C 375.707031 274.164062 375.175781 274.105469 374.472656 274.046875 C 373.765625 273.988281 373.175781 273.988281 372.707031 273.988281 C 371.648438 273.988281 370.707031 274.046875 369.882812 274.164062 C 369.0625 274.28125 368.179688 274.519531 367.238281 274.8125 L 367.238281 288.570312 L 359.832031 288.570312 L 359.832031 268.050781 L 367.238281 268.050781 L 367.238281 271.050781 C 368.886719 269.8125 370.296875 268.992188 371.472656 268.578125 C 372.648438 268.167969 373.765625 267.992188 374.824219 267.992188 C 375.058594 267.992188 375.410156 267.992188 375.707031 267.992188 C 376 267.992188 376.292969 267.992188 376.585938 268.050781 Z M 376.644531 274.28125 "/>
<path style=" stroke:none;fill-rule:nonzero;fill:rgb(100%,100%,100%);fill-opacity:1;" d="M 407.867188 279.515625 L 390.875 279.515625 C 390.992188 281.101562 391.699219 282.335938 392.933594 283.21875 C 394.226562 284.101562 396.050781 284.511719 398.519531 284.511719 C 400.105469 284.511719 401.574219 284.277344 403.046875 283.75 C 404.515625 283.21875 405.691406 282.691406 406.515625 282.160156 L 407.335938 282.160156 L 407.335938 287.453125 C 405.691406 288.039062 404.105469 288.511719 402.632812 288.746094 C 401.164062 289.039062 399.519531 289.15625 397.695312 289.15625 C 393.050781 289.15625 389.523438 288.21875 387.054688 286.394531 C 384.582031 284.570312 383.347656 281.925781 383.347656 278.457031 C 383.347656 275.046875 384.523438 272.402344 386.875 270.402344 C 389.230469 268.402344 392.402344 267.460938 396.519531 267.460938 C 400.28125 267.460938 403.105469 268.285156 404.984375 269.992188 C 406.867188 271.695312 407.808594 274.105469 407.808594 277.28125 L 407.808594 279.515625 Z M 400.515625 275.636719 C 400.457031 274.28125 400.105469 273.222656 399.339844 272.519531 C 398.636719 271.8125 397.460938 271.460938 395.929688 271.460938 C 394.519531 271.460938 393.34375 271.8125 392.402344 272.460938 C 391.460938 273.105469 390.992188 274.164062 390.875 275.636719 Z M 400.515625 275.636719 "/>
<path style=" stroke:none;fill-rule:nonzero;fill:rgb(100%,100%,100%);fill-opacity:1;" d="M 437.382812 282.042969 C 437.382812 284.160156 436.324219 285.867188 434.148438 287.160156 C 431.972656 288.453125 429.09375 289.097656 425.328125 289.097656 C 423.269531 289.097656 421.390625 288.921875 419.742188 288.570312 C 418.097656 288.21875 416.746094 287.863281 415.6875 287.453125 L 415.6875 282.042969 L 416.390625 282.042969 C 416.746094 282.277344 417.214844 282.515625 417.6875 282.808594 C 418.15625 283.101562 418.863281 283.394531 419.742188 283.691406 C 420.507812 283.984375 421.390625 284.21875 422.390625 284.394531 C 423.390625 284.570312 424.386719 284.691406 425.503906 284.691406 C 426.976562 284.691406 428.035156 284.570312 428.738281 284.277344 C 429.445312 283.984375 429.796875 283.574219 429.796875 282.984375 C 429.796875 282.457031 429.621094 282.101562 429.210938 281.867188 C 428.796875 281.632812 428.035156 281.398438 426.859375 281.21875 C 426.328125 281.101562 425.5625 280.984375 424.625 280.867188 C 423.683594 280.75 422.859375 280.574219 422.035156 280.398438 C 419.921875 279.925781 418.390625 279.164062 417.332031 278.105469 C 416.332031 277.046875 415.804688 275.8125 415.804688 274.28125 C 415.804688 272.285156 416.863281 270.695312 418.980469 269.34375 C 421.097656 268.050781 423.976562 267.402344 427.621094 267.402344 C 429.328125 267.402344 431.03125 267.578125 432.621094 267.875 C 434.207031 268.167969 435.441406 268.519531 436.324219 268.875 L 436.324219 274.046875 L 435.675781 274.046875 C 434.558594 273.402344 433.324219 272.8125 431.914062 272.402344 C 430.503906 271.988281 429.09375 271.753906 427.621094 271.753906 C 426.445312 271.753906 425.445312 271.871094 424.625 272.226562 C 423.800781 272.578125 423.390625 272.929688 423.390625 273.460938 C 423.390625 273.929688 423.566406 274.339844 423.976562 274.578125 C 424.386719 274.8125 425.210938 275.105469 426.621094 275.339844 C 427.386719 275.457031 428.210938 275.636719 429.09375 275.753906 C 429.972656 275.871094 430.855469 276.046875 431.738281 276.222656 C 433.679688 276.691406 435.148438 277.398438 436.03125 278.339844 C 436.910156 279.398438 437.382812 280.574219 437.382812 282.042969 Z M 437.382812 282.042969 "/>
<path style=" stroke:none;fill-rule:nonzero;fill:rgb(82.352941%,63.137255%,30.196078%);fill-opacity:1;" d="M 148.871094 216.839844 L 104.65625 191.320312 C 101.953125 189.734375 98.542969 189.734375 95.835938 191.320312 L 51.621094 216.839844 C 48.917969 218.425781 47.214844 221.367188 47.214844 224.484375 L 47.214844 275.515625 C 47.214844 278.691406 48.859375 281.574219 51.621094 283.160156 L 95.835938 308.679688 C 98.542969 310.265625 101.953125 310.265625 104.65625 308.679688 L 148.871094 283.160156 C 151.632812 281.574219 153.28125 278.632812 153.28125 275.515625 L 153.28125 224.484375 C 153.28125 221.308594 151.574219 218.425781 148.871094 216.839844 Z M 148.871094 216.839844 "/>
<path style="fill:none;stroke-width:3;stroke-linecap:butt;stroke-linejoin:miter;stroke:rgb(100%,100%,100%);stroke-opacity:1;stroke-miterlimit:10;" d="M 170.498556 396.897625 C 170.498556 406.497844 170.498556 415.998406 170.498556 425.598625 L 170.498556 452.2002 C 170.498556 452.399512 170.598212 452.499169 170.697869 452.698481 L 199.697837 481.69845 C 199.996806 481.997419 200.402075 481.997419 200.601387 481.69845 L 228.697806 452.399512 C 228.797462 452.299856 228.897119 452.100544 228.897119 451.901231 L 228.897119 426.302862 C 228.897119 425.897594 228.59815 425.897594 228.199525 425.897594 C 206.301725 427.100112 200.900356 440.799525 199.498525 446.998144 C 199.199556 448.300319 198.601619 448.399975 198.202994 447.0978 C 196.096925 440.600212 189.499681 425.897594 172.299012 424.901031 " transform="matrix(0.587959,0,0,0.587959,0,0)"/>
<path style="fill:none;stroke-width:3;stroke-linecap:butt;stroke-linejoin:miter;stroke:rgb(100%,100%,100%);stroke-opacity:1;stroke-miterlimit:10;" d="M 170.498556 451.502606 C 170.498556 441.902387 170.498556 432.401825 170.498556 422.801606 L 170.498556 396.200031 C 170.498556 396.000719 170.3989 395.901062 170.299244 395.70175 L 141.299275 366.701781 C 141.000306 366.402812 140.601681 366.402812 140.402369 366.701781 L 112.299306 396.000719 C 112.19965 396.100375 112.099994 396.299687 112.099994 396.499 L 112.099994 422.097369 C 112.099994 422.502637 112.398962 422.502637 112.797587 422.502637 C 134.702031 421.300119 140.096756 407.600706 141.498587 401.402087 C 141.797556 400.099912 142.402137 400.000256 142.800762 401.302431 C 144.900187 407.800019 151.497431 422.502637 168.6981 423.4992 " transform="matrix(0.587959,0,0,0.587959,0,0)"/>
<path style="fill:none;stroke-width:4;stroke-linecap:butt;stroke-linejoin:miter;stroke:rgb(100%,100%,100%);stroke-opacity:1;stroke-miterlimit:10;" d="M 170.498556 451.502606 C 170.498556 441.902387 170.498556 432.401825 170.498556 422.801606 L 170.498556 396.200031 C 170.498556 396.000719 170.3989 395.901062 170.299244 395.70175 L 141.299275 366.701781 C 141.000306 366.402812 140.601681 366.402812 140.402369 366.701781 L 112.299306 396.000719 C 112.19965 396.100375 112.099994 396.299687 112.099994 396.499 L 112.099994 422.097369 C 112.099994 422.502637 112.398962 422.502637 112.797587 422.502637 C 134.702031 421.300119 140.096756 407.600706 141.498587 401.402087 C 141.797556 400.099912 142.402137 400.000256 142.800762 401.302431 C 144.900187 407.800019 151.497431 422.502637 168.6981 423.4992 " transform="matrix(0.587959,0,0,0.587959,0,0)"/>
<path style="fill:none;stroke-width:4;stroke-linecap:butt;stroke-linejoin:miter;stroke:rgb(100%,100%,100%);stroke-opacity:1;stroke-miterlimit:10;" d="M 170.498556 396.897625 C 170.498556 406.497844 170.498556 415.998406 170.498556 425.598625 L 170.498556 452.2002 C 170.498556 452.399512 170.598212 452.499169 170.697869 452.698481 L 199.697837 481.69845 C 199.996806 481.997419 200.402075 481.997419 200.601387 481.69845 L 228.697806 452.399512 C 228.797462 452.299856 228.897119 452.100544 228.897119 451.901231 L 228.897119 426.302862 C 228.897119 425.897594 228.59815 425.897594 228.199525 425.897594 C 206.301725 427.100112 200.900356 440.799525 199.498525 446.998144 C 199.199556 448.300319 198.601619 448.399975 198.202994 447.0978 C 196.096925 440.600212 189.499681 425.897594 172.299012 424.901031 " transform="matrix(0.587959,0,0,0.587959,0,0)"/>
<path style=" stroke:none;fill-rule:nonzero;fill:rgb(100%,100%,100%);fill-opacity:1;" d="M 119.296875 234.476562 C 119.296875 235.746094 118.269531 236.769531 117.003906 236.769531 C 115.738281 236.769531 114.710938 235.746094 114.710938 234.476562 C 114.710938 233.210938 115.738281 232.183594 117.003906 232.183594 C 118.269531 232.183594 119.296875 233.210938 119.296875 234.476562 Z M 119.296875 234.476562 "/>
<path style=" stroke:none;fill-rule:nonzero;fill:rgb(100%,100%,100%);fill-opacity:1;" d="M 85.902344 264.050781 C 85.902344 265.320312 84.875 266.34375 83.609375 266.34375 C 82.339844 266.34375 81.316406 265.320312 81.316406 264.050781 C 81.316406 262.785156 82.339844 261.757812 83.609375 261.757812 C 84.875 261.757812 85.902344 262.785156 85.902344 264.050781 Z M 85.902344 264.050781 "/>
</g>
</svg>
