<?xml version="1.0" encoding="UTF-8"?>
<svg xmlns="http://www.w3.org/2000/svg" xmlns:xlink="http://www.w3.org/1999/xlink" width="500px" height="500px" viewBox="0 0 500 500" version="1.1">
<g id="surface1">
<path style=" stroke:none;fill-rule:nonzero;fill:rgb(82.352941%,63.137255%,30.196078%);fill-opacity:1;" d="M 205.96875 249.425781 L 184.605469 249.425781 L 184.605469 211.996094 L 205.96875 211.996094 L 205.96875 219.234375 L 192.183594 219.234375 L 192.183594 225.695312 L 204.980469 225.695312 L 204.980469 232.933594 L 192.183594 232.933594 L 192.183594 242.183594 L 205.96875 242.183594 Z M 205.96875 249.425781 "/>
<path style=" stroke:none;fill-rule:nonzero;fill:rgb(82.352941%,63.137255%,30.196078%);fill-opacity:1;" d="M 236.433594 221.199219 L 227.84375 249.425781 L 219.746094 249.425781 L 211.214844 221.199219 L 218.777344 221.199219 L 223.933594 240.605469 L 229.03125 221.199219 Z M 236.433594 221.199219 "/>
<path style=" stroke:none;fill-rule:nonzero;fill:rgb(82.352941%,63.137255%,30.196078%);fill-opacity:1;" d="M 265.214844 235.328125 C 265.214844 239.972656 264.144531 243.628906 262.007812 246.296875 C 259.875 248.972656 256.871094 250.308594 253.011719 250.308594 C 249.148438 250.308594 246.152344 248.972656 244.015625 246.296875 C 241.882812 243.625 240.8125 239.964844 240.8125 235.328125 C 240.8125 230.652344 241.890625 226.984375 244.035156 224.316406 C 246.1875 221.652344 249.179688 220.316406 253.011719 220.316406 C 256.898438 220.316406 259.910156 221.65625 262.03125 224.339844 C 264.148438 227.023438 265.214844 230.683594 265.214844 235.328125 Z M 256.421875 242.1875 C 256.886719 241.464844 257.234375 240.601562 257.464844 239.585938 C 257.695312 238.574219 257.8125 237.167969 257.8125 235.375 C 257.8125 233.714844 257.695312 232.324219 257.453125 231.199219 C 257.21875 230.078125 256.882812 229.183594 256.457031 228.511719 C 256.035156 227.824219 255.523438 227.34375 254.929688 227.054688 C 254.335938 226.773438 253.695312 226.625 253.007812 226.625 C 252.320312 226.625 251.707031 226.742188 251.171875 226.976562 C 250.636719 227.214844 250.125 227.683594 249.632812 228.382812 C 249.199219 229.035156 248.851562 229.9375 248.59375 231.070312 C 248.332031 232.210938 248.203125 233.644531 248.203125 235.367188 C 248.203125 236.910156 248.316406 238.25 248.539062 239.378906 C 248.761719 240.507812 249.089844 241.417969 249.53125 242.105469 C 249.957031 242.757812 250.460938 243.234375 251.050781 243.542969 C 251.636719 243.839844 252.308594 243.992188 253.066406 243.992188 C 253.714844 243.992188 254.332031 243.851562 254.925781 243.578125 C 255.511719 243.304688 256.011719 242.839844 256.421875 242.1875 Z M 256.421875 242.1875 "/>
<path style=" stroke:none;fill-rule:nonzero;fill:rgb(82.352941%,63.137255%,30.196078%);fill-opacity:1;" d="M 279.507812 249.425781 L 272.363281 249.425781 L 272.363281 210.316406 L 279.507812 210.316406 Z M 279.507812 249.425781 "/>
<path style=" stroke:none;fill-rule:nonzero;fill:rgb(82.352941%,63.137255%,30.196078%);fill-opacity:1;" d="M 310.722656 221.199219 L 302.132812 249.425781 L 294.035156 249.425781 L 285.503906 221.199219 L 293.066406 221.199219 L 298.222656 240.605469 L 303.320312 221.199219 Z M 310.722656 221.199219 "/>
<path style=" stroke:none;fill-rule:nonzero;fill:rgb(82.352941%,63.137255%,30.196078%);fill-opacity:1;" d="M 338.667969 236.984375 L 322.316406 236.984375 C 322.421875 239.195312 323.085938 240.890625 324.308594 242.066406 C 325.53125 243.242188 327.339844 243.824219 329.71875 243.824219 C 331.222656 243.824219 332.6875 243.480469 334.105469 242.792969 C 335.523438 242.105469 336.640625 241.371094 337.457031 240.582031 L 338.25 240.582031 L 338.25 247.851562 C 336.632812 248.675781 335.117188 249.269531 333.6875 249.636719 C 332.257812 250.007812 330.675781 250.191406 328.949219 250.191406 C 324.480469 250.191406 321.050781 248.914062 318.671875 246.371094 C 316.289062 243.824219 315.101562 240.195312 315.101562 235.484375 C 315.101562 230.828125 316.230469 227.136719 318.484375 224.414062 C 320.734375 221.691406 323.828125 220.328125 327.761719 220.328125 C 331.382812 220.328125 334.113281 221.488281 335.933594 223.808594 C 337.757812 226.132812 338.675781 229.472656 338.675781 233.828125 L 338.675781 236.984375 Z M 331.566406 231.683594 C 331.523438 229.789062 331.152344 228.367188 330.453125 227.40625 C 329.753906 226.449219 328.660156 225.972656 327.179688 225.972656 C 325.804688 225.972656 324.675781 226.425781 323.785156 227.332031 C 322.898438 228.238281 322.40625 229.683594 322.300781 231.683594 Z M 331.566406 231.683594 "/>
<path style=" stroke:none;fill-rule:nonzero;fill:rgb(82.352941%,63.137255%,30.196078%);fill-opacity:1;" d="M 369.25 219.242188 L 360.023438 219.242188 L 360.023438 249.433594 L 352.402344 249.433594 L 352.402344 219.242188 L 343.179688 219.242188 L 343.179688 212.003906 L 369.25 212.003906 Z M 369.25 219.242188 "/>
<path style=" stroke:none;fill-rule:nonzero;fill:rgb(82.352941%,63.137255%,30.196078%);fill-opacity:1;" d="M 397.410156 236.984375 L 381.058594 236.984375 C 381.167969 239.195312 381.832031 240.890625 383.054688 242.066406 C 384.277344 243.242188 386.082031 243.824219 388.464844 243.824219 C 389.96875 243.824219 391.433594 243.480469 392.847656 242.792969 C 394.265625 242.105469 395.382812 241.371094 396.199219 240.582031 L 396.996094 240.582031 L 396.996094 247.851562 C 395.378906 248.675781 393.859375 249.269531 392.433594 249.636719 C 391.003906 250.007812 389.421875 250.191406 387.691406 250.191406 C 383.222656 250.191406 379.796875 248.914062 377.414062 246.371094 C 375.035156 243.824219 373.847656 240.195312 373.847656 235.484375 C 373.847656 230.828125 374.976562 227.136719 377.226562 224.414062 C 379.480469 221.691406 382.570312 220.328125 386.503906 220.328125 C 390.125 220.328125 392.855469 221.488281 394.679688 223.808594 C 396.5 226.132812 397.417969 229.472656 397.417969 233.828125 L 397.417969 236.984375 Z M 390.308594 231.683594 C 390.269531 229.789062 389.898438 228.367188 389.199219 227.40625 C 388.5 226.449219 387.40625 225.972656 385.921875 225.972656 C 384.546875 225.972656 383.417969 226.425781 382.53125 227.332031 C 381.640625 228.238281 381.148438 229.683594 381.042969 231.683594 Z M 390.308594 231.683594 "/>
<path style=" stroke:none;fill-rule:nonzero;fill:rgb(82.352941%,63.137255%,30.196078%);fill-opacity:1;" d="M 416.089844 250.183594 C 414.144531 250.183594 412.371094 249.890625 410.765625 249.304688 C 409.160156 248.714844 407.761719 247.808594 406.566406 246.585938 C 405.390625 245.363281 404.472656 243.824219 403.828125 241.960938 C 403.179688 240.101562 402.855469 237.921875 402.855469 235.421875 C 402.855469 232.792969 403.203125 230.519531 403.898438 228.605469 C 404.589844 226.695312 405.5625 225.113281 406.800781 223.855469 C 408.007812 222.667969 409.394531 221.792969 410.96875 221.238281 C 412.546875 220.6875 414.175781 220.410156 415.875 220.410156 C 417.398438 220.410156 418.796875 220.621094 420.078125 221.039062 C 421.359375 221.457031 422.558594 222.003906 423.671875 222.675781 L 423.671875 230.394531 L 422.660156 230.394531 C 422.382812 230.09375 422.046875 229.742188 421.660156 229.335938 C 421.269531 228.9375 420.789062 228.542969 420.21875 228.152344 C 419.679688 227.785156 419.085938 227.476562 418.429688 227.238281 C 417.785156 226.996094 417.027344 226.871094 416.167969 226.871094 C 414.261719 226.871094 412.800781 227.636719 411.769531 229.171875 C 410.746094 230.707031 410.230469 232.789062 410.230469 235.414062 C 410.230469 238.132812 410.757812 240.191406 411.804688 241.601562 C 412.859375 243.007812 414.34375 243.710938 416.28125 243.710938 C 417.179688 243.710938 417.992188 243.582031 418.707031 243.324219 C 419.429688 243.066406 420.023438 242.757812 420.5 242.40625 C 420.949219 242.070312 421.347656 241.71875 421.6875 241.347656 C 422.035156 240.976562 422.347656 240.617188 422.640625 240.265625 L 423.652344 240.265625 L 423.652344 247.984375 C 422.53125 248.65625 421.355469 249.191406 420.128906 249.578125 C 418.925781 249.984375 417.574219 250.183594 416.089844 250.183594 Z M 416.089844 250.183594 "/>
<path style=" stroke:none;fill-rule:nonzero;fill:rgb(82.352941%,63.137255%,30.196078%);fill-opacity:1;" d="M 452.804688 249.425781 L 445.617188 249.425781 L 445.617188 235.425781 C 445.617188 234.285156 445.570312 233.152344 445.476562 232.023438 C 445.382812 230.894531 445.226562 230.058594 445 229.523438 C 444.738281 228.90625 444.347656 228.453125 443.84375 228.164062 C 443.332031 227.882812 442.621094 227.738281 441.710938 227.738281 C 441.0625 227.738281 440.402344 227.871094 439.734375 228.136719 C 439.0625 228.40625 438.339844 228.832031 437.5625 229.417969 L 437.5625 249.425781 L 430.421875 249.425781 L 430.421875 210.316406 L 437.5625 210.316406 L 437.5625 224.316406 C 438.832031 223.054688 440.050781 222.09375 441.226562 221.421875 C 442.398438 220.75 443.695312 220.417969 445.125 220.417969 C 447.53125 220.417969 449.410156 221.304688 450.769531 223.078125 C 452.128906 224.855469 452.804688 227.511719 452.804688 231.046875 Z M 452.804688 249.425781 "/>
<path style=" stroke:none;fill-rule:nonzero;fill:rgb(8.627451%,16.470588%,20.392157%);fill-opacity:1;" d="M 227.523438 261.351562 L 216.34375 288.5625 L 207.492188 288.5625 L 196.308594 261.351562 L 204.605469 261.351562 L 212.019531 280.464844 L 219.433594 261.351562 Z M 227.523438 261.351562 "/>
<path style=" stroke:none;fill-rule:nonzero;fill:rgb(8.627451%,16.470588%,20.392157%);fill-opacity:1;" d="M 258.511719 279.511719 L 241.542969 279.511719 C 241.652344 281.125 242.339844 282.351562 243.613281 283.207031 C 244.882812 284.058594 246.75 284.488281 249.222656 284.488281 C 250.785156 284.488281 252.300781 284.238281 253.773438 283.742188 C 255.242188 283.242188 256.398438 282.707031 257.253906 282.128906 L 258.074219 282.128906 L 258.074219 287.410156 C 256.398438 288.007812 254.824219 288.4375 253.34375 288.707031 C 251.859375 288.980469 250.21875 289.109375 248.421875 289.109375 C 243.78125 289.109375 240.226562 288.183594 237.753906 286.332031 C 235.285156 284.480469 234.050781 281.839844 234.050781 278.417969 C 234.050781 275.03125 235.222656 272.351562 237.5625 270.371094 C 239.902344 268.386719 243.113281 267.402344 247.1875 267.402344 C 250.949219 267.402344 253.777344 268.246094 255.671875 269.929688 C 257.5625 271.617188 258.511719 274.042969 258.511719 277.214844 Z M 251.144531 275.660156 C 251.101562 274.285156 250.71875 273.25 249.992188 272.558594 C 249.261719 271.863281 248.132812 271.515625 246.59375 271.515625 C 245.164062 271.515625 243.988281 271.847656 243.070312 272.503906 C 242.152344 273.164062 241.636719 274.214844 241.523438 275.667969 L 251.144531 275.667969 Z M 251.144531 275.660156 "/>
<path style=" stroke:none;fill-rule:nonzero;fill:rgb(8.627451%,16.470588%,20.392157%);fill-opacity:1;" d="M 291.191406 288.5625 L 283.734375 288.5625 L 283.734375 278.382812 C 283.734375 277.554688 283.6875 276.730469 283.585938 275.910156 C 283.492188 275.085938 283.328125 274.480469 283.09375 274.09375 C 282.816406 273.640625 282.417969 273.308594 281.886719 273.105469 C 281.359375 272.898438 280.625 272.792969 279.675781 272.792969 C 279.007812 272.792969 278.320312 272.890625 277.632812 273.085938 C 276.9375 273.28125 276.183594 273.59375 275.378906 274.019531 L 275.378906 288.566406 L 267.964844 288.566406 L 267.964844 268.042969 L 275.378906 268.042969 L 275.378906 270.304688 C 276.695312 269.394531 277.964844 268.6875 279.179688 268.207031 C 280.394531 267.71875 281.742188 267.476562 283.222656 267.476562 C 285.722656 267.476562 287.675781 268.125 289.078125 269.410156 C 290.484375 270.707031 291.191406 272.632812 291.191406 275.203125 Z M 291.191406 288.5625 "/>
<path style=" stroke:none;fill-rule:nonzero;fill:rgb(8.627451%,16.470588%,20.392157%);fill-opacity:1;" d="M 317.007812 288.378906 C 316.214844 288.5625 315.367188 288.703125 314.472656 288.808594 C 313.578125 288.914062 312.492188 288.960938 311.199219 288.960938 C 308.316406 288.960938 306.171875 288.445312 304.765625 287.410156 C 303.359375 286.375 302.65625 284.597656 302.65625 282.089844 L 302.65625 272.492188 L 299.609375 272.492188 L 299.609375 268.035156 L 302.65625 268.035156 L 302.65625 262.167969 L 310.070312 262.167969 L 310.070312 268.035156 L 317.007812 268.035156 L 317.007812 272.492188 L 310.070312 272.492188 L 310.070312 279.765625 C 310.070312 280.484375 310.074219 281.113281 310.085938 281.648438 C 310.097656 282.183594 310.210938 282.664062 310.417969 283.09375 C 310.609375 283.523438 310.945312 283.859375 311.433594 284.109375 C 311.921875 284.359375 312.632812 284.488281 313.5625 284.488281 C 313.945312 284.488281 314.449219 284.417969 315.074219 284.269531 C 315.695312 284.121094 316.132812 283.988281 316.378906 283.871094 L 316.996094 283.871094 L 316.996094 288.378906 Z M 317.007812 288.378906 "/>
<path style=" stroke:none;fill-rule:nonzero;fill:rgb(8.627451%,16.470588%,20.392157%);fill-opacity:1;" d="M 348.691406 288.5625 L 341.277344 288.5625 L 341.277344 286.296875 C 339.910156 287.222656 338.652344 287.925781 337.511719 288.410156 C 336.371094 288.890625 335.011719 289.132812 333.433594 289.132812 C 330.882812 289.132812 328.914062 288.480469 327.539062 287.175781 C 326.15625 285.867188 325.46875 283.945312 325.46875 281.398438 L 325.46875 268.042969 L 332.921875 268.042969 L 332.921875 278.21875 C 332.921875 279.253906 332.960938 280.117188 333.035156 280.804688 C 333.113281 281.496094 333.289062 282.066406 333.558594 282.515625 C 333.816406 282.96875 334.210938 283.300781 334.742188 283.503906 C 335.269531 283.710938 336.003906 283.816406 336.953125 283.816406 C 337.582031 283.816406 338.28125 283.710938 339.050781 283.503906 C 339.820312 283.300781 340.5625 282.992188 341.273438 282.59375 L 341.273438 268.046875 L 348.6875 268.046875 L 348.6875 288.5625 Z M 348.691406 288.5625 "/>
<path style=" stroke:none;fill-rule:nonzero;fill:rgb(8.627451%,16.470588%,20.392157%);fill-opacity:1;" d="M 376.667969 274.308594 L 376.011719 274.308594 C 375.691406 274.210938 375.1875 274.140625 374.488281 274.09375 C 373.789062 274.042969 373.207031 274.019531 372.734375 274.019531 C 371.675781 274.019531 370.742188 274.082031 369.9375 274.203125 C 369.125 274.328125 368.253906 274.53125 367.320312 274.828125 L 367.320312 288.566406 L 359.90625 288.566406 L 359.90625 268.042969 L 367.320312 268.042969 L 367.320312 271.050781 C 368.953125 269.8125 370.371094 268.984375 371.582031 268.578125 C 372.789062 268.171875 373.898438 267.964844 374.917969 267.964844 C 375.175781 267.964844 375.476562 267.972656 375.804688 267.984375 C 376.132812 267.996094 376.421875 268.011719 376.667969 268.035156 Z M 376.667969 274.308594 "/>
<path style=" stroke:none;fill-rule:nonzero;fill:rgb(8.627451%,16.470588%,20.392157%);fill-opacity:1;" d="M 407.859375 279.511719 L 390.890625 279.511719 C 391.003906 281.125 391.691406 282.351562 392.960938 283.207031 C 394.230469 284.058594 396.101562 284.488281 398.570312 284.488281 C 400.132812 284.488281 401.652344 284.238281 403.121094 283.742188 C 404.589844 283.242188 405.75 282.707031 406.601562 282.128906 L 407.425781 282.128906 L 407.425781 287.410156 C 405.75 288.007812 404.171875 288.4375 402.691406 288.707031 C 401.210938 288.980469 399.570312 289.109375 397.769531 289.109375 C 393.132812 289.109375 389.574219 288.183594 387.105469 286.332031 C 384.636719 284.480469 383.402344 281.839844 383.402344 278.417969 C 383.402344 275.03125 384.570312 272.351562 386.910156 270.371094 C 389.25 268.386719 392.460938 267.402344 396.535156 267.402344 C 400.296875 267.402344 403.125 268.246094 405.019531 269.929688 C 406.914062 271.617188 407.859375 274.042969 407.859375 277.214844 Z M 400.492188 275.660156 C 400.453125 274.285156 400.070312 273.25 399.339844 272.558594 C 398.609375 271.863281 397.480469 271.515625 395.941406 271.515625 C 394.511719 271.515625 393.34375 271.847656 392.421875 272.503906 C 391.503906 273.164062 390.984375 274.214844 390.875 275.667969 L 400.492188 275.667969 Z M 400.492188 275.660156 "/>
<path style=" stroke:none;fill-rule:nonzero;fill:rgb(8.627451%,16.470588%,20.392157%);fill-opacity:1;" d="M 437.40625 282.054688 C 437.40625 284.175781 436.335938 285.878906 434.195312 287.179688 C 432.054688 288.480469 429.121094 289.125 425.40625 289.125 C 423.347656 289.125 421.476562 288.957031 419.800781 288.613281 C 418.125 288.273438 416.78125 287.898438 415.769531 287.480469 L 415.769531 282.070312 L 416.449219 282.070312 C 416.820312 282.300781 417.25 282.550781 417.738281 282.828125 C 418.226562 283.105469 418.914062 283.398438 419.808594 283.71875 C 420.578125 284 421.449219 284.238281 422.425781 284.441406 C 423.398438 284.640625 424.441406 284.738281 425.550781 284.738281 C 427.003906 284.738281 428.085938 284.597656 428.785156 284.3125 C 429.484375 284.023438 429.839844 283.597656 429.839844 283.039062 C 429.839844 282.539062 429.632812 282.175781 429.222656 281.953125 C 428.808594 281.730469 428.027344 281.511719 426.875 281.304688 C 426.328125 281.195312 425.582031 281.078125 424.640625 280.949219 C 423.699219 280.816406 422.847656 280.664062 422.078125 280.484375 C 419.976562 279.996094 418.417969 279.238281 417.402344 278.207031 C 416.386719 277.179688 415.878906 275.898438 415.878906 274.363281 C 415.878906 272.386719 416.933594 270.746094 419.042969 269.433594 C 421.148438 268.125 424.027344 267.472656 427.679688 267.472656 C 429.410156 267.472656 431.066406 267.625 432.65625 267.9375 C 434.242188 268.246094 435.476562 268.578125 436.371094 268.929688 L 436.371094 274.121094 L 435.730469 274.121094 C 434.628906 273.449219 433.378906 272.902344 431.972656 272.488281 C 430.566406 272.070312 429.136719 271.859375 427.699219 271.859375 C 426.503906 271.859375 425.5 272.003906 424.679688 272.296875 C 423.863281 272.59375 423.457031 273.003906 423.457031 273.539062 C 423.457031 274.027344 423.648438 274.398438 424.015625 274.65625 C 424.386719 274.914062 425.257812 275.167969 426.632812 275.425781 C 427.386719 275.5625 428.203125 275.691406 429.074219 275.820312 C 429.945312 275.949219 430.820312 276.109375 431.703125 276.300781 C 433.648438 276.753906 435.09375 277.460938 436.023438 278.429688 C 436.941406 279.394531 437.40625 280.605469 437.40625 282.054688 Z M 437.40625 282.054688 "/>
<path style=" stroke:none;fill-rule:nonzero;fill:rgb(82.352941%,63.137255%,30.196078%);fill-opacity:1;" d="M 148.84375 216.828125 L 104.652344 191.300781 C 101.921875 189.726562 98.542969 189.726562 95.816406 191.300781 L 51.59375 216.828125 C 48.867188 218.40625 47.203125 221.332031 47.203125 224.484375 L 47.203125 275.519531 C 47.203125 278.671875 48.859375 281.601562 51.59375 283.175781 L 95.816406 308.707031 C 98.542969 310.28125 101.921875 310.28125 104.652344 308.707031 L 148.84375 283.175781 C 151.601562 281.601562 153.265625 278.671875 153.265625 275.519531 L 153.265625 224.484375 C 153.257812 221.332031 151.601562 218.40625 148.84375 216.828125 Z M 148.84375 216.828125 "/>
<path style="fill:none;stroke-width:3;stroke-linecap:butt;stroke-linejoin:miter;stroke:rgb(100%,100%,100%);stroke-opacity:1;stroke-miterlimit:10;" d="M 170.469977 396.912889 C 170.469977 406.479776 170.469977 416.053308 170.469977 425.620195 L 170.469977 452.181595 C 170.469977 452.347687 170.543057 452.520422 170.662643 452.653296 L 199.64234 481.632993 C 199.901443 481.892096 200.333282 481.892096 200.579098 481.619705 L 228.641968 452.341043 C 228.761554 452.221457 228.821347 452.048722 228.821347 451.88263 L 228.821347 426.311137 C 228.821347 425.932448 228.50245 425.939091 228.130405 425.959022 C 206.272724 427.168171 200.831557 440.807629 199.469604 447.099186 C 199.19057 448.421277 198.612571 448.447852 198.200663 447.158979 C 196.121194 440.641537 189.537315 425.952379 172.336848 424.982403 " transform="matrix(0.587966,0,0,0.587966,0,0)"/>
<path style="fill:none;stroke-width:3;stroke-linecap:butt;stroke-linejoin:miter;stroke:rgb(100%,100%,100%);stroke-opacity:1;stroke-miterlimit:10;" d="M 170.469977 451.537159 C 170.469977 441.970271 170.469977 432.39674 170.469977 422.829853 L 170.469977 396.268453 C 170.469977 396.102361 170.396896 395.929625 170.27731 395.796752 L 141.297613 366.817055 C 141.03851 366.557952 140.613315 366.557952 140.360856 366.830343 L 112.297986 396.109005 C 112.1784 396.228591 112.118607 396.401326 112.118607 396.567418 L 112.118607 422.138911 C 112.118607 422.5176 112.437503 422.510957 112.809548 422.491026 C 134.667229 421.281877 140.108396 407.642419 141.470349 401.350862 C 141.749383 400.028771 142.327383 400.002196 142.73929 401.291069 C 144.81876 407.808511 151.402638 422.497669 168.603105 423.467645 " transform="matrix(0.587966,0,0,0.587966,0,0)"/>
<path style="fill:none;stroke-width:2;stroke-linecap:butt;stroke-linejoin:miter;stroke:rgb(100%,100%,100%);stroke-opacity:1;stroke-miterlimit:10;" d="M 170.469977 451.537159 C 170.469977 441.970271 170.469977 432.39674 170.469977 422.829853 L 170.469977 396.268453 C 170.469977 396.102361 170.396896 395.929625 170.27731 395.796752 L 141.297613 366.817055 C 141.03851 366.557952 140.613315 366.557952 140.360856 366.830343 L 112.297986 396.109005 C 112.1784 396.228591 112.118607 396.401326 112.118607 396.567418 L 112.118607 422.138911 C 112.118607 422.5176 112.437503 422.510957 112.809548 422.491026 C 134.667229 421.281877 140.108396 407.642419 141.470349 401.350862 C 141.749383 400.028771 142.327383 400.002196 142.73929 401.291069 C 144.81876 407.808511 151.402638 422.497669 168.603105 423.467645 " transform="matrix(0.587966,0,0,0.587966,0,0)"/>
<path style="fill:none;stroke-width:2;stroke-linecap:butt;stroke-linejoin:miter;stroke:rgb(100%,100%,100%);stroke-opacity:1;stroke-miterlimit:10;" d="M 170.469977 396.912889 C 170.469977 406.479776 170.469977 416.053308 170.469977 425.620195 L 170.469977 452.181595 C 170.469977 452.347687 170.543057 452.520422 170.662643 452.653296 L 199.64234 481.632993 C 199.901443 481.892096 200.333282 481.892096 200.579098 481.619705 L 228.641968 452.341043 C 228.761554 452.221457 228.821347 452.048722 228.821347 451.88263 L 228.821347 426.311137 C 228.821347 425.932448 228.50245 425.939091 228.130405 425.959022 C 206.272724 427.168171 200.831557 440.807629 199.469604 447.099186 C 199.19057 448.421277 198.612571 448.447852 198.200663 447.158979 C 196.121194 440.641537 189.537315 425.952379 172.336848 424.982403 " transform="matrix(0.587966,0,0,0.587966,0,0)"/>
<path style=" stroke:none;fill-rule:nonzero;fill:rgb(100%,100%,100%);fill-opacity:1;" d="M 119.308594 234.511719 C 119.308594 235.777344 118.285156 236.804688 117.015625 236.804688 C 115.75 236.804688 114.722656 235.777344 114.722656 234.511719 C 114.722656 233.242188 115.75 232.21875 117.015625 232.21875 C 118.285156 232.21875 119.308594 233.242188 119.308594 234.511719 Z M 119.308594 234.511719 "/>
<path style=" stroke:none;fill-rule:nonzero;fill:rgb(100%,100%,100%);fill-opacity:1;" d="M 85.914062 264.050781 C 85.914062 265.316406 84.886719 266.34375 83.621094 266.34375 C 82.355469 266.34375 81.328125 265.316406 81.328125 264.050781 C 81.328125 262.78125 82.355469 261.757812 83.621094 261.757812 C 84.886719 261.757812 85.914062 262.78125 85.914062 264.050781 Z M 85.914062 264.050781 "/>
</g>
</svg>
